<svg width="12" height="22" viewBox="0 0 12 22" fill="none" xmlns="http://www.w3.org/2000/svg">
<path d="M0.41498 11.6333L10.1677 20.9258C10.3305 21.0809 10.5467 21.1675 10.7715 21.1675C10.9963 21.1675 11.2125 21.0809 11.3752 20.9258L11.3857 20.9153C11.4649 20.8401 11.5279 20.7496 11.571 20.6493C11.6141 20.5489 11.6363 20.4409 11.6363 20.3317C11.6363 20.2225 11.6141 20.1145 11.571 20.0141C11.5279 19.9138 11.4649 19.8233 11.3857 19.7481L2.20173 10.9981L11.3857 2.25156C11.4649 2.17636 11.5279 2.08584 11.571 1.98551C11.6141 1.88517 11.6363 1.77713 11.6363 1.66794C11.6363 1.55875 11.6141 1.4507 11.571 1.35037C11.5279 1.25004 11.4649 1.15952 11.3857 1.08431L11.3752 1.07381C11.2125 0.918684 10.9963 0.832146 10.7715 0.832146C10.5467 0.832146 10.3305 0.918684 10.1677 1.07381L0.41498 10.3663C0.329209 10.448 0.260925 10.5463 0.214269 10.6552C0.167613 10.7641 0.143555 10.8813 0.143555 10.9998C0.143555 11.1183 0.167613 11.2355 0.214269 11.3444C0.260925 11.4533 0.329209 11.5516 0.41498 11.6333Z" fill="#F7F7F7"/>
</svg>
