<svg width="12" height="22" viewBox="0 0 12 22" fill="none" xmlns="http://www.w3.org/2000/svg">
<path d="M11.585 11.6333L1.83227 20.9258C1.66954 21.0809 1.45334 21.1675 1.22852 21.1675C1.0037 21.1675 0.7875 21.0809 0.62477 20.9258L0.614269 20.9153C0.535109 20.8401 0.472075 20.7496 0.429 20.6493C0.385926 20.5489 0.363713 20.4409 0.363713 20.3317C0.363713 20.2225 0.385926 20.1145 0.429 20.0141C0.472075 19.9138 0.535109 19.8233 0.614269 19.7481L9.79827 10.9981L0.614269 2.25156C0.535109 2.17636 0.472075 2.08584 0.429 1.98551C0.385926 1.88517 0.363713 1.77713 0.363713 1.66794C0.363713 1.55875 0.385926 1.4507 0.429 1.35037C0.472075 1.25004 0.535109 1.15952 0.614269 1.08431L0.62477 1.07381C0.7875 0.918684 1.0037 0.832146 1.22852 0.832146C1.45334 0.832146 1.66954 0.918684 1.83227 1.07381L11.585 10.3663C11.6708 10.448 11.7391 10.5463 11.7857 10.6552C11.8324 10.7641 11.8564 10.8813 11.8564 10.9998C11.8564 11.1183 11.8324 11.2355 11.7857 11.3444C11.7391 11.4533 11.6708 11.5516 11.585 11.6333Z" fill="#F7F7F7"/>
</svg>
