<svg width="31" height="30" viewBox="0 0 31 30" fill="none" xmlns="http://www.w3.org/2000/svg">
<path d="M14.9999 29.1668C16.1333 29.1668 17.2666 29.0252 18.2583 28.7418C17.6916 28.0335 17.1249 27.1835 16.8416 26.1918C16.2749 26.3335 15.5666 26.3335 14.9999 26.3335C8.76658 26.3335 3.66659 21.2335 3.66659 15.0002C3.66659 8.76683 8.76658 3.66683 14.9999 3.66683C16.1333 3.66683 17.1249 3.8085 18.1166 4.09183L20.3833 1.82516C18.6833 1.2585 16.8416 0.833496 14.9999 0.833496C7.20825 0.833496 0.833252 7.2085 0.833252 15.0002C0.833252 22.7918 7.20825 29.1668 14.9999 29.1668ZM7.20825 14.2918L9.19159 12.3085L13.5833 16.7002L25.7666 4.51683L27.7499 6.50016L13.5833 20.6668L7.20825 14.2918ZM24.9166 17.8335L23.1316 21.7293L19.2499 23.5002L23.1316 25.2852L24.9166 29.1668L26.6874 25.2852L30.5833 23.5002L26.6874 21.7293L24.9166 17.8335Z" fill="#536A6B"/>
</svg>
