<svg width="50" height="50" viewBox="0 0 50 50" fill="none" xmlns="http://www.w3.org/2000/svg">
<circle cx="25" cy="25" r="25" fill="url(#paint0_linear_217_336)"/>
<path d="M20.0999 13.3333H29.8999C33.6333 13.3333 36.6666 16.3667 36.6666 20.1V29.9C36.6666 31.6946 35.9537 33.4158 34.6847 34.6848C33.4157 35.9538 31.6946 36.6667 29.8999 36.6667H20.0999C16.3666 36.6667 13.3333 33.6333 13.3333 29.9V20.1C13.3333 18.3054 14.0462 16.5843 15.3152 15.3153C16.5842 14.0463 18.3053 13.3333 20.0999 13.3333ZM19.8666 15.6667C18.7527 15.6667 17.6844 16.1092 16.8967 16.8968C16.1091 17.6845 15.6666 18.7528 15.6666 19.8667V30.1333C15.6666 32.455 17.5449 34.3333 19.8666 34.3333H30.1333C31.2472 34.3333 32.3155 33.8908 33.1031 33.1032C33.8908 32.3155 34.3333 31.2473 34.3333 30.1333V19.8667C34.3333 17.545 32.4549 15.6667 30.1333 15.6667H19.8666ZM31.1249 17.4167C31.5117 17.4167 31.8826 17.5703 32.1561 17.8438C32.4296 18.1173 32.5833 18.4882 32.5833 18.875C32.5833 19.2618 32.4296 19.6327 32.1561 19.9062C31.8826 20.1797 31.5117 20.3333 31.1249 20.3333C30.7381 20.3333 30.3672 20.1797 30.0937 19.9062C29.8202 19.6327 29.6666 19.2618 29.6666 18.875C29.6666 18.4882 29.8202 18.1173 30.0937 17.8438C30.3672 17.5703 30.7381 17.4167 31.1249 17.4167ZM24.9999 19.1667C26.547 19.1667 28.0307 19.7813 29.1247 20.8752C30.2187 21.9692 30.8333 23.4529 30.8333 25C30.8333 26.5471 30.2187 28.0308 29.1247 29.1248C28.0307 30.2188 26.547 30.8333 24.9999 30.8333C23.4528 30.8333 21.9691 30.2188 20.8751 29.1248C19.7812 28.0308 19.1666 26.5471 19.1666 25C19.1666 23.4529 19.7812 21.9692 20.8751 20.8752C21.9691 19.7813 23.4528 19.1667 24.9999 19.1667ZM24.9999 21.5C24.0717 21.5 23.1814 21.8688 22.525 22.5251C21.8687 23.1815 21.4999 24.0718 21.4999 25C21.4999 25.9283 21.8687 26.8185 22.525 27.4749C23.1814 28.1313 24.0717 28.5 24.9999 28.5C25.9282 28.5 26.8184 28.1313 27.4748 27.4749C28.1312 26.8185 28.4999 25.9283 28.4999 25C28.4999 24.0718 28.1312 23.1815 27.4748 22.5251C26.8184 21.8688 25.9282 21.5 24.9999 21.5Z" fill="white"/>
<defs>
<linearGradient id="paint0_linear_217_336" x1="19" y1="-3.5" x2="50" y2="41" gradientUnits="userSpaceOnUse">
<stop stop-color="#E92F2F"/>
<stop offset="1" stop-color="#FD753B"/>
</linearGradient>
</defs>
</svg>
