<svg width="25" height="25" viewBox="0 0 25 25" fill="none" xmlns="http://www.w3.org/2000/svg">
<path d="M23.6988 17.0375L17.7938 14.3913C17.5262 14.2766 17.2343 14.2305 16.9444 14.2572C16.6546 14.2838 16.3759 14.3823 16.1338 14.5438C16.1092 14.5595 16.0858 14.5771 16.0638 14.5963L12.9775 17.2213C12.9455 17.2387 12.9098 17.2485 12.8734 17.2498C12.837 17.2511 12.8007 17.2439 12.7675 17.2288C10.7838 16.2713 8.72876 14.2288 7.76751 12.2725C7.75151 12.2398 7.74319 12.2039 7.74319 12.1675C7.74319 12.1311 7.75151 12.0952 7.76751 12.0625L10.4013 8.93751C10.4202 8.91439 10.4377 8.89018 10.4538 8.86501C10.613 8.62189 10.7092 8.34294 10.7336 8.05335C10.7581 7.76375 10.71 7.47263 10.5938 7.20626L7.96627 1.31126C7.81705 0.963272 7.559 0.673064 7.23084 0.484192C6.90268 0.29532 6.52212 0.217973 6.14626 0.263761C4.5128 0.478506 3.01341 1.28068 1.92829 2.52039C0.843179 3.76009 0.24659 5.35249 0.250015 7.00001C0.250015 16.7875 8.21251 24.75 18 24.75C19.6475 24.7532 21.2397 24.1565 22.4794 23.0714C23.719 21.9864 24.5213 20.4871 24.7363 18.8538C24.782 18.4797 24.7057 18.1008 24.5187 17.7736C24.3318 17.4463 24.0442 17.1882 23.6988 17.0375ZM18 23.25C9.04002 23.25 1.75001 15.96 1.75001 7.00001C1.74584 5.71742 2.20877 4.47719 3.05232 3.51102C3.89587 2.54486 5.06233 1.91887 6.33376 1.75001H6.36251C6.41289 1.75095 6.4618 1.76709 6.50284 1.79631C6.54389 1.82553 6.57514 1.86647 6.59251 1.91376L9.23001 7.80251C9.24506 7.83525 9.25284 7.87085 9.25284 7.90689C9.25284 7.94292 9.24506 7.97852 9.23001 8.01126L6.59127 11.1438C6.57158 11.1661 6.55361 11.1899 6.53752 11.215C6.3724 11.4671 6.27516 11.7575 6.25524 12.0582C6.23531 12.3589 6.29336 12.6596 6.42376 12.9313C7.53251 15.2013 9.82001 17.4713 12.115 18.58C12.3883 18.7097 12.6905 18.7663 12.9921 18.7444C13.2938 18.7225 13.5846 18.6228 13.8363 18.455C13.86 18.4388 13.8838 18.4213 13.9063 18.4025L16.9913 15.7775C17.0217 15.7611 17.0554 15.7515 17.0899 15.7494C17.1244 15.7472 17.159 15.7526 17.1913 15.765L23.0975 18.4113C23.1458 18.4318 23.1863 18.467 23.2135 18.5119C23.2406 18.5567 23.253 18.609 23.2488 18.6613C23.0808 19.9333 22.4554 21.1006 21.4894 21.9451C20.5235 22.7896 19.2831 23.2535 18 23.25Z" fill="#434343"/>
</svg>
