<svg width="25" height="25" viewBox="0 0 25 25" fill="none" xmlns="http://www.w3.org/2000/svg">
<path d="M10 2.50003C8.01088 2.50003 6.10322 3.29021 4.6967 4.69673C3.29018 6.10326 2.5 8.01091 2.5 10C2.5 11.9892 3.29018 13.8968 4.6967 15.3033C6.10322 16.7099 8.01088 17.5 10 17.5C11.9891 17.5 13.8968 16.7099 15.3033 15.3033C16.7098 13.8968 17.5 11.9892 17.5 10C17.5 8.01091 16.7098 6.10326 15.3033 4.69673C13.8968 3.29021 11.9891 2.50003 10 2.50003ZM6.17703e-08 10C0.000227908 8.40861 0.380273 6.84022 1.10855 5.42521C1.83683 4.0102 2.8923 2.78944 4.18726 1.86439C5.48221 0.939335 6.97925 0.336702 8.55394 0.106573C10.1286 -0.123556 11.7355 0.0254659 13.241 0.541254C14.7466 1.05704 16.1073 1.9247 17.21 3.07212C18.3128 4.21954 19.1257 5.61358 19.5814 7.13838C20.037 8.66319 20.1222 10.2747 19.8297 11.839C19.5373 13.4034 18.8757 14.8753 17.9 16.1325L24.6338 22.8663C24.8614 23.102 24.9874 23.4178 24.9846 23.7455C24.9817 24.0733 24.8503 24.3868 24.6185 24.6186C24.3868 24.8503 24.0732 24.9818 23.7455 24.9846C23.4178 24.9875 23.102 24.8615 22.8662 24.6338L16.1325 17.9C14.6543 19.0477 12.8838 19.7575 11.0222 19.9488C9.16063 20.1401 7.28274 19.8052 5.60206 18.9821C3.92138 18.1591 2.50536 16.881 1.51503 15.2931C0.524699 13.7053 -0.000207901 11.8714 6.17703e-08 10Z" fill="#536A6B"/>
</svg>
