<svg width="598" height="292" viewBox="0 0 598 292" fill="none" xmlns="http://www.w3.org/2000/svg">
<path fill-rule="evenodd" clip-rule="evenodd" d="M-151.784 208.907L-126.503 188.297C-101.839 167.687 -51.8954 125.323 -1.90773 125.271C48.0799 125.219 98.1114 167.479 148.076 145.7C198.043 125.064 248.561 41.5314 298.534 27.7568C348.508 13.9822 398.552 68.8211 448.547 75.6306C498.543 83.5836 548.487 41.22 573.15 20.6103L598.431 -5.27405e-05L598.734 291.608L573.432 291.634C548.747 291.66 498.759 291.712 448.771 291.763C398.784 291.815 348.796 291.867 298.808 291.919C248.821 291.971 198.216 292.024 148.228 292.075C98.2408 292.127 48.2532 292.179 -1.73439 292.231C-51.722 292.283 -101.71 292.335 -126.395 292.361L-151.697 292.387L-151.784 208.907Z" fill="#FCFDFF" fill-opacity="0.65"/>
</svg>
